<mxfile host="app.diagrams.net" modified="2024-02-18T14:35:46.858Z" agent="Mozilla/5.0 (Macintosh; Intel Mac OS X 10_15_7) AppleWebKit/537.36 (KHTML, like Gecko) Chrome/121.0.0.0 Safari/537.36" etag="2M5BCJa5PGBAQJHTaY6f" version="23.1.2" type="device">
  <diagram name="Страница — 1" id="kogaD1IzRG7daNPQfxDR">
    <mxGraphModel dx="1405" dy="889" grid="1" gridSize="10" guides="1" tooltips="1" connect="1" arrows="1" fold="1" page="1" pageScale="1" pageWidth="827" pageHeight="1169" math="0" shadow="0">
      <root>
        <mxCell id="0" />
        <mxCell id="1" parent="0" />
        <mxCell id="RH2YfhpS_0A9IHr1iYJQ-7" value="&lt;p style=&quot;margin:0px;margin-top:4px;text-align:center;&quot;&gt;&lt;i&gt;&amp;lt;&amp;lt;&lt;/i&gt;&lt;i style=&quot;background-color: initial;&quot;&gt;abstract class&lt;/i&gt;&lt;i style=&quot;background-color: initial;&quot;&gt;&amp;gt;&amp;gt;&lt;/i&gt;&lt;/p&gt;&lt;p style=&quot;margin:0px;margin-top:4px;text-align:center;&quot;&gt;Subscription&lt;br&gt;&lt;/p&gt;&lt;hr size=&quot;1&quot;&gt;&lt;p style=&quot;margin:0px;margin-left:4px;&quot;&gt;monthlyFee&lt;br&gt;&lt;/p&gt;&amp;nbsp;minSubscriptionPeriod&lt;br&gt;&amp;nbsp;channels&lt;br&gt;&amp;nbsp;otherFeatures" style="verticalAlign=top;align=left;overflow=fill;fontSize=12;fontFamily=Helvetica;html=1;whiteSpace=wrap;" vertex="1" parent="1">
          <mxGeometry x="319" y="200" width="190" height="110" as="geometry" />
        </mxCell>
        <mxCell id="RH2YfhpS_0A9IHr1iYJQ-27" style="edgeStyle=orthogonalEdgeStyle;rounded=0;orthogonalLoop=1;jettySize=auto;html=1;entryX=0;entryY=0.5;entryDx=0;entryDy=0;" edge="1" parent="1" source="RH2YfhpS_0A9IHr1iYJQ-9" target="RH2YfhpS_0A9IHr1iYJQ-7">
          <mxGeometry relative="1" as="geometry">
            <Array as="points">
              <mxPoint x="210" y="255" />
            </Array>
          </mxGeometry>
        </mxCell>
        <mxCell id="RH2YfhpS_0A9IHr1iYJQ-9" value="DomesticSubscription" style="swimlane;fontStyle=0;childLayout=stackLayout;horizontal=1;startSize=26;fillColor=none;horizontalStack=0;resizeParent=1;resizeParentMax=0;resizeLast=0;collapsible=1;marginBottom=0;whiteSpace=wrap;html=1;" vertex="1" parent="1">
          <mxGeometry x="130" y="420" width="140" height="104" as="geometry" />
        </mxCell>
        <mxCell id="RH2YfhpS_0A9IHr1iYJQ-10" value="monthlyFee" style="text;strokeColor=none;fillColor=none;align=left;verticalAlign=top;spacingLeft=4;spacingRight=4;overflow=hidden;rotatable=0;points=[[0,0.5],[1,0.5]];portConstraint=eastwest;whiteSpace=wrap;html=1;" vertex="1" parent="RH2YfhpS_0A9IHr1iYJQ-9">
          <mxGeometry y="26" width="140" height="26" as="geometry" />
        </mxCell>
        <mxCell id="RH2YfhpS_0A9IHr1iYJQ-11" value="minSubscriptionPeriod" style="text;strokeColor=none;fillColor=none;align=left;verticalAlign=top;spacingLeft=4;spacingRight=4;overflow=hidden;rotatable=0;points=[[0,0.5],[1,0.5]];portConstraint=eastwest;whiteSpace=wrap;html=1;" vertex="1" parent="RH2YfhpS_0A9IHr1iYJQ-9">
          <mxGeometry y="52" width="140" height="26" as="geometry" />
        </mxCell>
        <mxCell id="RH2YfhpS_0A9IHr1iYJQ-13" value="channels" style="text;strokeColor=none;fillColor=none;align=left;verticalAlign=top;spacingLeft=4;spacingRight=4;overflow=hidden;rotatable=0;points=[[0,0.5],[1,0.5]];portConstraint=eastwest;whiteSpace=wrap;html=1;" vertex="1" parent="RH2YfhpS_0A9IHr1iYJQ-9">
          <mxGeometry y="78" width="140" height="26" as="geometry" />
        </mxCell>
        <mxCell id="RH2YfhpS_0A9IHr1iYJQ-28" style="edgeStyle=orthogonalEdgeStyle;rounded=0;orthogonalLoop=1;jettySize=auto;html=1;entryX=0.5;entryY=1;entryDx=0;entryDy=0;" edge="1" parent="1" source="RH2YfhpS_0A9IHr1iYJQ-14" target="RH2YfhpS_0A9IHr1iYJQ-7">
          <mxGeometry relative="1" as="geometry" />
        </mxCell>
        <mxCell id="RH2YfhpS_0A9IHr1iYJQ-14" value="EducationalSubscription" style="swimlane;fontStyle=0;childLayout=stackLayout;horizontal=1;startSize=26;fillColor=none;horizontalStack=0;resizeParent=1;resizeParentMax=0;resizeLast=0;collapsible=1;marginBottom=0;whiteSpace=wrap;html=1;" vertex="1" parent="1">
          <mxGeometry x="343" y="420" width="140" height="104" as="geometry" />
        </mxCell>
        <mxCell id="RH2YfhpS_0A9IHr1iYJQ-15" value="monthlyFee" style="text;strokeColor=none;fillColor=none;align=left;verticalAlign=top;spacingLeft=4;spacingRight=4;overflow=hidden;rotatable=0;points=[[0,0.5],[1,0.5]];portConstraint=eastwest;whiteSpace=wrap;html=1;" vertex="1" parent="RH2YfhpS_0A9IHr1iYJQ-14">
          <mxGeometry y="26" width="140" height="26" as="geometry" />
        </mxCell>
        <mxCell id="RH2YfhpS_0A9IHr1iYJQ-16" value="minSubscriptionPeriod" style="text;strokeColor=none;fillColor=none;align=left;verticalAlign=top;spacingLeft=4;spacingRight=4;overflow=hidden;rotatable=0;points=[[0,0.5],[1,0.5]];portConstraint=eastwest;whiteSpace=wrap;html=1;" vertex="1" parent="RH2YfhpS_0A9IHr1iYJQ-14">
          <mxGeometry y="52" width="140" height="26" as="geometry" />
        </mxCell>
        <mxCell id="RH2YfhpS_0A9IHr1iYJQ-17" value="channels" style="text;strokeColor=none;fillColor=none;align=left;verticalAlign=top;spacingLeft=4;spacingRight=4;overflow=hidden;rotatable=0;points=[[0,0.5],[1,0.5]];portConstraint=eastwest;whiteSpace=wrap;html=1;" vertex="1" parent="RH2YfhpS_0A9IHr1iYJQ-14">
          <mxGeometry y="78" width="140" height="26" as="geometry" />
        </mxCell>
        <mxCell id="RH2YfhpS_0A9IHr1iYJQ-29" style="edgeStyle=orthogonalEdgeStyle;rounded=0;orthogonalLoop=1;jettySize=auto;html=1;entryX=1;entryY=0.5;entryDx=0;entryDy=0;" edge="1" parent="1" source="RH2YfhpS_0A9IHr1iYJQ-19" target="RH2YfhpS_0A9IHr1iYJQ-7">
          <mxGeometry relative="1" as="geometry">
            <Array as="points">
              <mxPoint x="640" y="255" />
            </Array>
          </mxGeometry>
        </mxCell>
        <mxCell id="RH2YfhpS_0A9IHr1iYJQ-19" value="PremiumSubscription" style="swimlane;fontStyle=0;childLayout=stackLayout;horizontal=1;startSize=26;fillColor=none;horizontalStack=0;resizeParent=1;resizeParentMax=0;resizeLast=0;collapsible=1;marginBottom=0;whiteSpace=wrap;html=1;" vertex="1" parent="1">
          <mxGeometry x="570" y="420" width="140" height="104" as="geometry" />
        </mxCell>
        <mxCell id="RH2YfhpS_0A9IHr1iYJQ-20" value="monthlyFee" style="text;strokeColor=none;fillColor=none;align=left;verticalAlign=top;spacingLeft=4;spacingRight=4;overflow=hidden;rotatable=0;points=[[0,0.5],[1,0.5]];portConstraint=eastwest;whiteSpace=wrap;html=1;" vertex="1" parent="RH2YfhpS_0A9IHr1iYJQ-19">
          <mxGeometry y="26" width="140" height="26" as="geometry" />
        </mxCell>
        <mxCell id="RH2YfhpS_0A9IHr1iYJQ-21" value="minSubscriptionPeriod" style="text;strokeColor=none;fillColor=none;align=left;verticalAlign=top;spacingLeft=4;spacingRight=4;overflow=hidden;rotatable=0;points=[[0,0.5],[1,0.5]];portConstraint=eastwest;whiteSpace=wrap;html=1;" vertex="1" parent="RH2YfhpS_0A9IHr1iYJQ-19">
          <mxGeometry y="52" width="140" height="26" as="geometry" />
        </mxCell>
        <mxCell id="RH2YfhpS_0A9IHr1iYJQ-22" value="channels" style="text;strokeColor=none;fillColor=none;align=left;verticalAlign=top;spacingLeft=4;spacingRight=4;overflow=hidden;rotatable=0;points=[[0,0.5],[1,0.5]];portConstraint=eastwest;whiteSpace=wrap;html=1;" vertex="1" parent="RH2YfhpS_0A9IHr1iYJQ-19">
          <mxGeometry y="78" width="140" height="26" as="geometry" />
        </mxCell>
        <mxCell id="RH2YfhpS_0A9IHr1iYJQ-53" style="edgeStyle=orthogonalEdgeStyle;rounded=0;orthogonalLoop=1;jettySize=auto;html=1;" edge="1" parent="1" source="RH2YfhpS_0A9IHr1iYJQ-34" target="RH2YfhpS_0A9IHr1iYJQ-35">
          <mxGeometry relative="1" as="geometry">
            <Array as="points">
              <mxPoint x="350" y="780" />
            </Array>
          </mxGeometry>
        </mxCell>
        <mxCell id="RH2YfhpS_0A9IHr1iYJQ-34" value="&lt;p style=&quot;margin:0px;margin-top:4px;text-align:center;&quot;&gt;ManagerCall&lt;br&gt;&lt;/p&gt;&lt;hr size=&quot;1&quot;&gt;&lt;div style=&quot;height:2px;&quot;&gt;purchaseSubscription ():Subscription&lt;/div&gt;" style="verticalAlign=top;align=left;overflow=fill;fontSize=12;fontFamily=Helvetica;html=1;whiteSpace=wrap;" vertex="1" parent="1">
          <mxGeometry x="64" y="750" width="226" height="60" as="geometry" />
        </mxCell>
        <mxCell id="RH2YfhpS_0A9IHr1iYJQ-51" style="edgeStyle=orthogonalEdgeStyle;rounded=0;orthogonalLoop=1;jettySize=auto;html=1;" edge="1" parent="1" source="RH2YfhpS_0A9IHr1iYJQ-35" target="RH2YfhpS_0A9IHr1iYJQ-14">
          <mxGeometry relative="1" as="geometry" />
        </mxCell>
        <mxCell id="RH2YfhpS_0A9IHr1iYJQ-52" style="edgeStyle=orthogonalEdgeStyle;rounded=0;orthogonalLoop=1;jettySize=auto;html=1;" edge="1" parent="1" source="RH2YfhpS_0A9IHr1iYJQ-35" target="RH2YfhpS_0A9IHr1iYJQ-19">
          <mxGeometry relative="1" as="geometry" />
        </mxCell>
        <mxCell id="RH2YfhpS_0A9IHr1iYJQ-35" value="&lt;p style=&quot;margin:0px;margin-top:4px;text-align:center;&quot;&gt;&lt;i&gt;&amp;lt;&amp;lt;Interface&amp;gt;&amp;gt;&lt;/i&gt;&lt;br&gt;&lt;b&gt;SubscriptionFactory&lt;/b&gt;&lt;br&gt;&lt;/p&gt;&lt;hr size=&quot;1&quot;&gt;&lt;p style=&quot;margin:0px;margin-left:4px;&quot;&gt;createSubscription(): Subscription&lt;br&gt;&lt;/p&gt;" style="verticalAlign=top;align=left;overflow=fill;fontSize=12;fontFamily=Helvetica;html=1;whiteSpace=wrap;" vertex="1" parent="1">
          <mxGeometry x="319" y="630" width="188" height="80" as="geometry" />
        </mxCell>
        <mxCell id="RH2YfhpS_0A9IHr1iYJQ-55" style="edgeStyle=orthogonalEdgeStyle;rounded=0;orthogonalLoop=1;jettySize=auto;html=1;" edge="1" parent="1" source="RH2YfhpS_0A9IHr1iYJQ-36" target="RH2YfhpS_0A9IHr1iYJQ-35">
          <mxGeometry relative="1" as="geometry" />
        </mxCell>
        <mxCell id="RH2YfhpS_0A9IHr1iYJQ-36" value="&lt;p style=&quot;margin:0px;margin-top:4px;text-align:center;&quot;&gt;MobileApp&lt;br&gt;&lt;/p&gt;&lt;hr size=&quot;1&quot;&gt;&lt;div style=&quot;height:2px;&quot;&gt;purchaseSubscription ():Subscription&lt;/div&gt;" style="verticalAlign=top;align=left;overflow=fill;fontSize=12;fontFamily=Helvetica;html=1;whiteSpace=wrap;" vertex="1" parent="1">
          <mxGeometry x="294" y="860" width="240" height="60" as="geometry" />
        </mxCell>
        <mxCell id="RH2YfhpS_0A9IHr1iYJQ-54" style="edgeStyle=orthogonalEdgeStyle;rounded=0;orthogonalLoop=1;jettySize=auto;html=1;" edge="1" parent="1" source="RH2YfhpS_0A9IHr1iYJQ-37" target="RH2YfhpS_0A9IHr1iYJQ-35">
          <mxGeometry relative="1" as="geometry">
            <Array as="points">
              <mxPoint x="480" y="760" />
            </Array>
          </mxGeometry>
        </mxCell>
        <mxCell id="RH2YfhpS_0A9IHr1iYJQ-37" value="&lt;p style=&quot;margin:0px;margin-top:4px;text-align:center;&quot;&gt;WebSite&lt;br&gt;&lt;/p&gt;&lt;hr size=&quot;1&quot;&gt;&lt;div style=&quot;height:2px;&quot;&gt;purchaseSubscription ():Subscription&lt;/div&gt;" style="verticalAlign=top;align=left;overflow=fill;fontSize=12;fontFamily=Helvetica;html=1;whiteSpace=wrap;" vertex="1" parent="1">
          <mxGeometry x="570" y="730" width="226" height="60" as="geometry" />
        </mxCell>
        <mxCell id="RH2YfhpS_0A9IHr1iYJQ-50" style="edgeStyle=orthogonalEdgeStyle;rounded=0;orthogonalLoop=1;jettySize=auto;html=1;entryX=0.464;entryY=1.192;entryDx=0;entryDy=0;entryPerimeter=0;" edge="1" parent="1" source="RH2YfhpS_0A9IHr1iYJQ-35" target="RH2YfhpS_0A9IHr1iYJQ-13">
          <mxGeometry relative="1" as="geometry">
            <Array as="points">
              <mxPoint x="195" y="660" />
            </Array>
          </mxGeometry>
        </mxCell>
      </root>
    </mxGraphModel>
  </diagram>
</mxfile>
